Patient4_TMGait_0pt7_01_right_48_EMG.mot
version=1
nRows=40
nColumns=33
inDegrees=no
endheader
time	1LAddLong	2LGlutMax	3LGlutMed	4LIliopsoas	5LSemiMemb	6LBicFemLong	7LRecFem	8LVastMed	9LVastLat	10LGasMed	11LTibAnt	12lTibPost	13LPeroneusLong	14LSol	15LExtDigLong	16LFlexDigLong	17RAddLong	18RGlutMax	19RGlutMed	20RIliopsoas	21RSemiMemb	22RBicFemLong	23RRecFem	24RVastMed	25RVastLat	26RGasMed	27RTibAnt	28RTibPost	29RPeroneusLong	30RSol	31RExtDigLong	32RFlexDigLong
56.01	-0.016937	0.093231	-0.022888	0.005493	0.061798	0.62347	0.15305	0.008087	-0.074921	0.024109	-0.008087	0.031128	-0.04837	-0.035553	0.018005	0.025635	-0.003204	-0.056458	0.15961	0.04364	0.016479	-0.082092	-0.32379	0.007477	-0.010071	-0.037384	-0.062408	0.042419	0.34607	0.17014	-0.005188	-0.019073
56.011	-0.023956	0.12451	-0.033569	0.019836	-0.046082	0.70984	0.19363	0.019379	-0.044556	0.039368	-0.009613	0.028534	-0.0354	-0.079651	-0.003204	0.023804	-0.003662	0.014801	0.079651	0.10422	0.071259	-0.047607	-0.32181	0.050201	0.003662	-0.015564	-0.053253	0.022888	-0.18356	0.1265	-0.00473	-0.001373
56.012	-0.036163	0.095673	-0.068207	0.003967	-0.13367	0.54016	0.20676	0.025177	0.000458	0.034027	0.004425	0.017853	-0.033417	-0.036926	-0.010223	0.01709	0.001678	-0.064392	0.039368	0.087128	0.14557	-0.13916	-0.30655	0.01358	0.01709	0.018311	-0.056	0.004578	-0.41901	-0.46371	-0.005341	-0.015259
56.013	-0.03067	0.15915	0.000153	-0.001526	-0.13947	0.14557	0.19348	0.019989	-0.022583	0.023804	-0.064697	0.050201	0.029297	0.000305	-0.007629	0.042725	0.005798	-0.043488	-0.099792	0.070648	0.15488	-0.13962	-0.28961	0.018158	0.003204	-0.001831	-0.020905	0.025482	-0.097046	-0.55725	-0.011139	-0.019684
56.014	-0.027313	0.13962	-0.02655	0.012054	-0.06485	-0.10178	0.11887	0.016022	0.060577	0.028076	-0.14862	0.037537	0.13626	0.00061	-0.012665	0.031738	0.011597	-0.057373	-0.053101	-0.015564	0.18082	-0.035706	-0.26825	-0.033722	-0.00946	-0.01358	-0.023346	-0.079041	0.11795	-0.16083	-0.007629	-0.016785
56.015	-0.028992	0.13016	-0.1239	0.006104	0.004883	-0.11108	0.12863	0.016937	0.11719	0.058136	-0.097351	0.029602	0.092926	-0.015106	0.014038	0.028229	0.024414	-0.041351	-0.050201	-0.13245	0.17334	0.028076	-0.2179	-0.028381	0.000305	-0.024414	0.002747	-0.26977	0.090027	0.18524	-0.006104	-0.012665
56.016	-0.049286	0.22461	-0.11734	0.010834	-0.061188	-0.13077	0.11261	0.018158	0.03418	0.066681	0.033112	0.032806	0.033569	0.004425	0.041504	0.025024	0.016174	-0.015411	-0.20966	-0.23117	0.14954	-0.01297	-0.21866	-0.055084	-0.020142	-0.005035	0.01236	-0.00946	0.26154	0.20157	-0.007782	-0.013733
56.017	-0.048065	0.22842	0.10986	0.013733	-0.12268	-0.20233	0.070953	0.02121	0.30655	0.061951	0.090485	0.036316	0.081177	0.035706	0.06485	0.032043	0.020294	-0.018158	-0.23773	-0.1886	0.10712	-0.031586	-0.1918	-0.050964	-0.008545	0.021973	0.030823	0.088196	0.37567	0.30884	-0.004578	-0.019684
56.018	-0.036774	0.17838	0.077209	0.018005	-0.12894	-0.17288	-0.013275	0.016174	0.62027	0.04425	0.048981	0.056152	0.17868	0.065613	-0.035553	0.033417	0.029907	-0.10895	-0.15991	-0.077972	0.093079	0.04303	-0.24124	-0.037537	-0.010681	0.031738	0.076141	0.18982	0.38788	0.021515	-0.002441	-0.0177
56.019	-0.020447	0.15656	0.070648	0.011139	-0.11322	-0.32928	-0.094757	0.005646	0.62805	0.025024	-0.027466	0.044403	0.32959	0.10941	-0.13763	0.019531	0.030212	-0.14069	-0.088043	0.070953	0.10056	0.19882	-0.24185	-0.044098	-0.011292	0.041046	0.14343	0.1059	0.40939	-0.28686	-0.005035	-0.031586
56.02	0.019684	0.12375	0.07782	0.007935	-0.059052	-0.4071	-0.11917	-0.002594	0.46234	0.010071	-0.00351	0.022888	0.37308	0.090179	-0.12787	0.011139	0.026855	-0.13519	-0.069122	0.058289	0.088806	0.20401	-0.21896	-0.050507	-0.026855	0.064697	0.06897	0.04837	0.61142	-0.29816	-0.002136	-0.03006
56.021	0.023346	0.12283	0.12283	0.000458	0.083466	-0.46875	-0.072174	-0.007935	0.3125	0.023804	0.077057	0.024109	-0.14374	0.022888	0.00412	0.009155	0.028534	-0.14236	-0.07431	0.097046	0.07782	0.084381	-0.2182	-0.047607	-0.04715	0.069427	-0.037842	-0.063934	0.8403	-0.18921	-0.002747	-0.018005
56.022	0.033722	0.14084	0.1564	0.014496	0.233	-0.56808	-0.02594	-0.007324	0.10452	0.046539	0.14648	0.037231	-0.55817	0.050812	0.10254	-0.013123	0.017395	-0.21454	-0.12909	0.16251	0.047455	0.01297	-0.23178	-0.045013	-0.037689	0.031128	-0.095215	-0.007172	0.77118	0.2742	-0.007477	-0.016785
56.023	0.035553	0.13809	0.14008	0.020142	0.14542	-0.56564	0.020294	0.003815	-0.070496	0.046844	0.088196	0.033722	0.24674	0.13519	0.039368	-0.009918	0.022888	-0.23361	-0.11398	0.2005	0.020447	-0.018311	-0.20309	-0.064392	-0.036774	0.000458	-0.081482	0.000153	-1.358	0.057831	-0.005646	-0.014648
56.024	0.025482	0.10086	0.093079	0.004578	0.046692	-0.50079	0.10117	0.013428	-0.16998	-0.013275	0.00946	0.024719	0.86441	0.13779	-0.14084	-0.025787	0.021362	-0.21698	-0.10956	0.16388	0.014648	-0.021667	-0.24017	-0.06073	-0.022125	-0.033722	-0.054474	-0.23468	-0.53726	-0.47226	-0.007935	-0.013885
56.025	0.033112	0.11032	0.04776	-0.012817	0.017395	-0.37521	0.18951	0.033417	-0.19028	-0.000153	0.028381	0.029602	0.29129	0.13611	-0.16632	-0.03891	0.018311	-0.20203	-0.049286	0.15472	0.044708	-0.02533	-0.21545	-0.065308	-0.038147	-0.071106	-0.027466	-0.84976	-0.020905	-0.58365	-0.004272	-0.028076
56.026	0.027618	0.12405	0.02243	-0.006409	-0.024109	-0.37949	0.17029	0.040894	-0.22308	-0.042725	-0.030212	0.03006	-0.51285	0.28748	0.28122	-0.039215	0.009613	-0.21271	-0.022278	0.14969	0.045013	-0.052032	-0.20691	-0.07782	-0.004883	-0.085449	-0.015259	0.25024	-0.36392	-0.51453	-0.003815	-0.017853
56.027	0.010529	0.17883	-0.057373	0.017548	-0.024109	-0.24185	0.15396	0.044708	-0.36377	-0.075378	-0.036621	0.015411	-0.51071	0.27039	-0.000916	-0.043335	0.010681	-0.16525	-0.020294	0.11215	0.065918	-0.040436	-0.19424	-0.083313	-0.019531	-0.079651	0.056152	0.13153	-0.99457	-0.47974	-0.002289	-0.022278
56.028	0.002289	0.1561	-0.1828	0.027466	-0.053253	-0.23483	0.27741	0.024567	-0.42221	-0.075836	-0.026093	0.006409	-0.60883	0.20905	0.073395	-0.050812	-0.001373	-0.1738	0.039063	0.077362	0.075378	-0.030823	-0.21484	-0.091095	0.004578	-0.043335	0.060577	0.28076	0.67261	-0.32928	-0.001068	-0.031891
56.029	0.002899	0.15533	-0.23636	-0.000153	-0.040131	-0.24887	0.25345	0.005951	-0.32333	-0.073853	-0.031891	0.015106	-0.13351	0.20645	0.001373	-0.050507	-0.007935	-0.20248	0.090179	0.065002	0.06546	-0.009613	-0.18601	-0.086365	0.013885	-0.00946	0.16724	0.29709	1.0634	0.49484	-0.002899	-0.011597
56.03	0.003357	0.13611	-0.13107	0.011292	-0.008392	-0.080109	0.036621	-0.010376	-0.29236	-0.10056	0.054016	0.00473	0.15717	0.21942	-0.008545	-0.048676	-0.00885	-0.20218	0.1239	0.013733	0.070343	-0.04837	-0.18509	-0.029144	0.039825	0.001068	0.28656	0.22919	-0.25345	1.2491	0.002899	-0.005798
56.031	-0.010376	0.15656	-0.095062	-0.005188	-0.009918	0.062256	-0.03952	-0.018616	-0.27115	-0.095062	0.051727	0.001984	0.041962	0.13947	-0.005035	-0.046082	-0.007629	-0.23315	0.099487	-0.063324	0.03418	-0.061493	-0.19623	-0.037079	0.055389	0.010376	0.13458	0.075531	0.20203	0.84457	-0.001068	-0.01358
56.032	-0.03067	0.14755	0.12817	0.010529	-0.070038	0.26321	0.01297	-0.040131	-0.28503	-0.079956	0.021515	-0.017853	-0.1416	0.028992	0.030518	-0.035095	-0.009003	-0.21713	0.095978	-0.041046	0.024414	-0.024109	-0.23666	-0.013885	0.04837	0.007324	-0.029449	0.014343	0.60776	0.2385	-0.004883	-0.018463
56.033	-0.040436	0.14664	0.12131	0.001373	-0.048065	0.15198	0.079803	-0.044556	-0.29434	-0.071564	-0.011902	0.000458	-0.14099	0.052185	0.00061	-0.025482	-0.013428	-0.26245	0.12619	-0.014343	0.031586	-0.03006	-0.2002	0.003052	0.046387	-0.006409	-0.10346	-0.010223	0.65201	-0.079041	-0.006866	-0.018005
56.034	-0.053711	0.1828	0.11917	-0.003815	0.012512	-0.10025	0.11856	-0.05188	-0.20691	-0.095367	-0.003815	0.000458	-0.21194	0.15701	-0.052032	-0.011597	0.021667	-0.26459	0.12863	-0.027313	0.050201	-0.086365	-0.18616	-0.006409	0.053558	0.005188	-0.074463	-0.044708	0.37888	-0.15076	-0.011749	-0.024261
56.035	-0.084991	0.21484	0.10925	0.000305	0.019531	-0.037537	0.21759	-0.027313	-0.2243	-0.092926	0.062866	-0.02121	-0.28275	0.23346	-0.084229	0.001984	0.051575	-0.25101	0.14786	-0.06958	0.033569	-0.13641	-0.26047	0.011597	0.054321	0.028992	-0.13489	-0.075378	0.12299	-0.038757	-0.007324	-0.021362
56.036	-0.074463	0.23178	0.015564	-0.004272	0.045471	0.1001	0.23209	-0.012817	-0.23651	-0.08667	0.12253	-0.003357	-0.32898	0.20584	0.018921	-0.007019	0.049744	-0.25787	0.168	-0.19196	0.026855	-0.009613	-0.25345	0.00946	0.046997	0.019836	-0.21194	-0.042572	0.23514	0.10437	-0.005798	-0.028229
56.037	-0.076141	0.21805	-0.019531	-0.021057	0.069427	0.20676	0.12512	-0.002899	-0.25909	-0.098724	0.21576	-0.011444	-0.21744	0.22522	0.50293	0.000153	0.018311	-0.22751	0.19394	-0.19241	0.040741	0.13306	-0.19302	0.054932	0.035858	0.019531	-0.21378	-0.035706	-0.19577	0.32867	0.001526	-0.021057
56.038	-0.061035	0.24796	-0.05249	0.001831	0.053864	0.38132	-0.001068	-0.004272	-0.20966	-0.1178	0.014191	-0.01297	-0.20538	0.32394	0.76523	-0.003967	0.004425	-0.28656	0.17899	-0.046234	0.063629	0.099182	-0.24414	0.055542	0.044556	0.01709	-0.14236	-0.040436	-0.4454	0.41779	-0.003204	-0.030518
56.039	-0.022125	0.2301	-0.032501	0.002899	0.001068	0.30884	-0.04715	-0.020599	-0.12955	-0.10864	-0.26382	0.001373	-0.30945	0.40329	1.3277	-0.005798	-0.008392	-0.36758	0.26215	0.013428	0.082397	0.066833	-0.24124	0.014191	0.026855	0.012665	-0.010223	-0.015869	-1.3715	0.31021	0.000763	-0.026398
56.04	-0.007477	0.29251	-0.038757	0.001984	-0.18677	0.16617	-0.061035	-0.028992	-0.11597	-0.1152	-0.32349	-0.01236	-0.3331	0.40024	-0.081177	0.000153	-0.018921	-0.40359	0.31555	0.053253	0.072937	0.029755	-0.22919	0.029297	0.032959	0.013123	0.065765	-0.037231	-1.328	0.14969	-0.012817	-0.032501
56.041	-0.000916	0.28641	-0.02243	0.00885	-0.21484	0.089417	-0.060272	-0.021057	-0.11826	-0.10117	-0.18341	-0.001984	-0.45319	0.34607	-0.49103	0.013123	-0.012665	-0.33783	0.3331	0.17639	0.038605	0.042419	-0.22446	0.045319	0.014343	0.01236	0.058899	-0.047455	-0.15152	0.11841	-0.003662	-0.029907
56.042	0.033722	0.26138	0.073395	0.029449	-0.09491	0.103	-0.042267	-0.020905	-0.1236	-0.14679	-0.07843	-0.009003	-0.34592	0.27679	-0.29343	0.005646	0.020599	-0.3746	0.42786	0.21271	0.020905	0.028076	-0.23025	-0.002289	0.021667	0.039673	-0.005798	-0.078583	-0.000458	0.14999	0.005951	-0.022888
56.043	0.045624	0.27588	0.057983	0.018005	0.00885	0.19333	-0.067444	0.006409	-0.036926	-0.14435	0.13367	0.007019	-0.25787	0.17487	-0.71289	-0.012512	-0.023041	-0.45334	0.47943	0.15732	0.010986	0.017548	-0.24216	-0.018005	0.026245	0.092621	-0.007935	-0.121	-0.052338	0.001526	-0.006714	-0.01236
56.044	0.022278	0.2449	-0.063782	0.018616	0.062561	0.25299	-0.02594	0.010376	0.00412	-0.10193	0.15137	-0.007629	-0.33554	-0.10407	-1.2801	-0.027161	-0.036011	-0.51895	0.47012	0.11597	0.008545	0.02182	-0.20676	0.021973	0.041504	0.075989	-0.023193	-0.087128	0.26047	-0.34195	-0.003052	-0.007629
56.045	0.002899	0.25864	-0.058289	0.002136	0.007935	0.23514	0.007477	-0.006256	0.011292	-0.076447	0.097351	-0.007782	-0.39337	-0.29907	-0.89477	-0.042725	-0.018463	-0.5455	0.51331	0.043488	0.008545	0.00473	-0.20355	0.03891	0.023956	-0.039673	0.001373	-0.13992	-0.65964	-0.53757	-0.003052	0.006104
56.046	-0.002441	0.23438	-0.13107	0.002136	-0.069427	0.17059	0.020294	0	-0.014648	-0.001373	0.044098	0.001678	-0.513	-0.46005	-0.74295	-0.052185	-0.010834	-0.53192	0.54291	-0.012207	0.005493	-0.001221	-0.2153	0.02594	0.021973	-0.088196	0.050354	-0.16235	-0.98129	-0.75699	-0.007477	-0.00351
56.047	0.005188	0.21362	-0.045929	0.001526	-0.1561	0.11795	-0.046387	-0.003815	-0.064087	0.021057	-0.084839	-0.006561	-0.54764	-0.41702	-0.7045	-0.068359	0.011597	-0.56442	0.58792	-0.063477	-0.005951	-0.026093	-0.22873	0.010986	0.007629	-0.040283	-0.006714	-0.22644	0.055695	-1.1653	-0.010376	-0.010834
56.048	0.000763	0.18387	-0.02121	-0.000458	-0.103	-0.097198	-0.11368	-0.052185	-0.10681	0.04715	-0.1329	-0.025635	-0.47821	-0.35965	-0.4187	-0.054016	0.043945	-0.63538	0.62653	-0.10132	-0.015106	-0.025024	-0.21561	0.003204	0.017853	-0.025482	-0.044403	-0.085754	0.007782	-1.2724	-0.011139	-0.018158
56.049	0.004272	0.1445	0.032043	0.001678	0.059509	-0.26535	-0.13916	-0.074158	-0.14801	0.042267	-0.26291	-0.020599	-0.42313	-0.31754	0.043182	-0.05127	0.085907	-0.62897	0.65414	-0.084229	-0.023193	-0.039673	-0.242	0.024567	0.016022	-0.000305	0.008545	0.14389	0.26871	-0.77866	-0.00885	-0.031433
